<mxfile host="app.diagrams.net" modified="2024-02-20T02:22:14.631Z" agent="Mozilla/5.0 (Windows NT 10.0; Win64; x64) AppleWebKit/537.36 (KHTML, like Gecko) Chrome/121.0.0.0 Safari/537.36" etag="41wIRVt1AuI_o9Y2mcvs" version="23.1.5" type="device">
  <diagram name="Page-1" id="8Z0cmIo_9uPPebMcupiz">
    <mxGraphModel dx="1900" dy="522" grid="1" gridSize="10" guides="1" tooltips="1" connect="1" arrows="1" fold="1" page="1" pageScale="1" pageWidth="850" pageHeight="1100" math="0" shadow="0">
      <root>
        <mxCell id="0" />
        <mxCell id="1" parent="0" />
        <mxCell id="v7SNlWJ-4N4TZI_C_DW5-1" value="" style="rounded=0;whiteSpace=wrap;html=1;" parent="1" vertex="1">
          <mxGeometry x="370" y="100" width="120" height="60" as="geometry" />
        </mxCell>
        <mxCell id="v7SNlWJ-4N4TZI_C_DW5-2" value="" style="rounded=0;whiteSpace=wrap;html=1;" parent="1" vertex="1">
          <mxGeometry x="80" y="200" width="120" height="60" as="geometry" />
        </mxCell>
        <mxCell id="v7SNlWJ-4N4TZI_C_DW5-3" value="" style="rounded=0;whiteSpace=wrap;html=1;" parent="1" vertex="1">
          <mxGeometry x="230" y="200" width="120" height="60" as="geometry" />
        </mxCell>
        <mxCell id="v7SNlWJ-4N4TZI_C_DW5-4" value="" style="rounded=0;whiteSpace=wrap;html=1;" parent="1" vertex="1">
          <mxGeometry x="380" y="200" width="120" height="60" as="geometry" />
        </mxCell>
        <mxCell id="v7SNlWJ-4N4TZI_C_DW5-5" value="" style="rounded=0;whiteSpace=wrap;html=1;" parent="1" vertex="1">
          <mxGeometry x="810" y="200" width="120" height="60" as="geometry" />
        </mxCell>
        <mxCell id="v7SNlWJ-4N4TZI_C_DW5-6" value="" style="endArrow=none;html=1;rounded=0;" parent="1" edge="1">
          <mxGeometry width="50" height="50" relative="1" as="geometry">
            <mxPoint x="520" y="250" as="sourcePoint" />
            <mxPoint x="780" y="250" as="targetPoint" />
          </mxGeometry>
        </mxCell>
        <mxCell id="v7SNlWJ-4N4TZI_C_DW5-7" value="" style="ellipse;shape=cloud;whiteSpace=wrap;html=1;" parent="1" vertex="1">
          <mxGeometry x="230" y="300" width="120" height="80" as="geometry" />
        </mxCell>
        <mxCell id="v7SNlWJ-4N4TZI_C_DW5-8" value="" style="ellipse;shape=cloud;whiteSpace=wrap;html=1;" parent="1" vertex="1">
          <mxGeometry x="460" y="300" width="120" height="80" as="geometry" />
        </mxCell>
        <mxCell id="v7SNlWJ-4N4TZI_C_DW5-9" value="" style="rounded=0;whiteSpace=wrap;html=1;fillColor=#fff2cc;strokeColor=#d6b656;" parent="1" vertex="1">
          <mxGeometry x="780" y="60" width="120" height="60" as="geometry" />
        </mxCell>
        <mxCell id="v7SNlWJ-4N4TZI_C_DW5-10" value="" style="ellipse;shape=cloud;whiteSpace=wrap;html=1;" parent="1" vertex="1">
          <mxGeometry x="780" y="70" width="120" height="80" as="geometry" />
        </mxCell>
        <mxCell id="v7SNlWJ-4N4TZI_C_DW5-13" value="" style="rounded=1;whiteSpace=wrap;html=1;" parent="1" vertex="1">
          <mxGeometry x="-50" y="520" width="1070" height="440" as="geometry" />
        </mxCell>
        <mxCell id="v7SNlWJ-4N4TZI_C_DW5-14" value="VPC - London" style="text;html=1;strokeColor=none;fillColor=none;align=center;verticalAlign=middle;whiteSpace=wrap;rounded=0;" parent="1" vertex="1">
          <mxGeometry x="-10" y="480" width="60" height="30" as="geometry" />
        </mxCell>
        <mxCell id="v7SNlWJ-4N4TZI_C_DW5-15" value="" style="rounded=1;whiteSpace=wrap;html=1;" parent="1" vertex="1">
          <mxGeometry x="30" y="550" width="300" height="370" as="geometry" />
        </mxCell>
        <mxCell id="v7SNlWJ-4N4TZI_C_DW5-16" value="" style="rounded=1;whiteSpace=wrap;html=1;" parent="1" vertex="1">
          <mxGeometry x="640" y="550" width="290" height="370" as="geometry" />
        </mxCell>
        <mxCell id="v7SNlWJ-4N4TZI_C_DW5-17" value="AZ-1" style="text;html=1;strokeColor=none;fillColor=none;align=center;verticalAlign=middle;whiteSpace=wrap;rounded=0;" parent="1" vertex="1">
          <mxGeometry x="10" y="530" width="60" height="30" as="geometry" />
        </mxCell>
        <mxCell id="v7SNlWJ-4N4TZI_C_DW5-18" value="AZ-2" style="text;html=1;strokeColor=none;fillColor=none;align=center;verticalAlign=middle;whiteSpace=wrap;rounded=0;" parent="1" vertex="1">
          <mxGeometry x="610" y="530" width="60" height="30" as="geometry" />
        </mxCell>
        <mxCell id="623eJf90sNJ-theE023B-2" style="edgeStyle=orthogonalEdgeStyle;rounded=0;orthogonalLoop=1;jettySize=auto;html=1;" parent="1" source="v7SNlWJ-4N4TZI_C_DW5-19" target="623eJf90sNJ-theE023B-1" edge="1">
          <mxGeometry relative="1" as="geometry" />
        </mxCell>
        <mxCell id="v7SNlWJ-4N4TZI_C_DW5-19" value="x" style="rounded=1;whiteSpace=wrap;html=1;" parent="1" vertex="1">
          <mxGeometry x="95" y="565" width="175" height="85" as="geometry" />
        </mxCell>
        <mxCell id="623eJf90sNJ-theE023B-3" style="edgeStyle=orthogonalEdgeStyle;rounded=0;orthogonalLoop=1;jettySize=auto;html=1;" parent="1" source="v7SNlWJ-4N4TZI_C_DW5-20" target="623eJf90sNJ-theE023B-1" edge="1">
          <mxGeometry relative="1" as="geometry" />
        </mxCell>
        <mxCell id="v7SNlWJ-4N4TZI_C_DW5-20" value="Y" style="rounded=1;whiteSpace=wrap;html=1;" parent="1" vertex="1">
          <mxGeometry x="95" y="680" width="180" height="90" as="geometry" />
        </mxCell>
        <mxCell id="v7SNlWJ-4N4TZI_C_DW5-21" value="Z" style="rounded=1;whiteSpace=wrap;html=1;" parent="1" vertex="1">
          <mxGeometry x="95" y="800" width="185" height="90" as="geometry" />
        </mxCell>
        <mxCell id="623eJf90sNJ-theE023B-4" style="edgeStyle=orthogonalEdgeStyle;rounded=0;orthogonalLoop=1;jettySize=auto;html=1;" parent="1" source="v7SNlWJ-4N4TZI_C_DW5-22" target="623eJf90sNJ-theE023B-1" edge="1">
          <mxGeometry relative="1" as="geometry" />
        </mxCell>
        <mxCell id="v7SNlWJ-4N4TZI_C_DW5-22" value="A" style="rounded=1;whiteSpace=wrap;html=1;" parent="1" vertex="1">
          <mxGeometry x="725" y="570" width="175" height="100" as="geometry" />
        </mxCell>
        <mxCell id="623eJf90sNJ-theE023B-12" style="edgeStyle=orthogonalEdgeStyle;rounded=0;orthogonalLoop=1;jettySize=auto;html=1;" parent="1" source="v7SNlWJ-4N4TZI_C_DW5-23" target="623eJf90sNJ-theE023B-10" edge="1">
          <mxGeometry relative="1" as="geometry" />
        </mxCell>
        <mxCell id="v7SNlWJ-4N4TZI_C_DW5-23" value="B" style="rounded=1;whiteSpace=wrap;html=1;" parent="1" vertex="1">
          <mxGeometry x="730" y="800" width="160" height="90" as="geometry" />
        </mxCell>
        <mxCell id="v7SNlWJ-4N4TZI_C_DW5-24" value="PubSubnet" style="text;html=1;strokeColor=none;fillColor=none;align=center;verticalAlign=middle;whiteSpace=wrap;rounded=0;" parent="1" vertex="1">
          <mxGeometry x="30" y="590" width="60" height="30" as="geometry" />
        </mxCell>
        <mxCell id="v7SNlWJ-4N4TZI_C_DW5-25" value="PubSubnet" style="text;html=1;strokeColor=none;fillColor=none;align=center;verticalAlign=middle;whiteSpace=wrap;rounded=0;" parent="1" vertex="1">
          <mxGeometry x="30" y="705" width="60" height="30" as="geometry" />
        </mxCell>
        <mxCell id="v7SNlWJ-4N4TZI_C_DW5-26" value="PrivSubnet" style="text;html=1;strokeColor=none;fillColor=none;align=center;verticalAlign=middle;whiteSpace=wrap;rounded=0;" parent="1" vertex="1">
          <mxGeometry x="30" y="825" width="60" height="30" as="geometry" />
        </mxCell>
        <mxCell id="v7SNlWJ-4N4TZI_C_DW5-27" value="PubSubnet" style="text;html=1;strokeColor=none;fillColor=none;align=center;verticalAlign=middle;whiteSpace=wrap;rounded=0;" parent="1" vertex="1">
          <mxGeometry x="650" y="637.5" width="60" height="30" as="geometry" />
        </mxCell>
        <mxCell id="v7SNlWJ-4N4TZI_C_DW5-28" value="PrivSubnet" style="text;html=1;strokeColor=none;fillColor=none;align=center;verticalAlign=middle;whiteSpace=wrap;rounded=0;" parent="1" vertex="1">
          <mxGeometry x="650" y="800" width="60" height="30" as="geometry" />
        </mxCell>
        <mxCell id="v7SNlWJ-4N4TZI_C_DW5-29" value="logs.ibm.de" style="rounded=0;whiteSpace=wrap;html=1;" parent="1" vertex="1">
          <mxGeometry x="182.5" y="850" width="80" height="30" as="geometry" />
        </mxCell>
        <mxCell id="v7SNlWJ-4N4TZI_C_DW5-30" value="goibibo" style="rounded=0;whiteSpace=wrap;html=1;" parent="1" vertex="1">
          <mxGeometry x="180" y="700" width="50" height="27.5" as="geometry" />
        </mxCell>
        <mxCell id="v7SNlWJ-4N4TZI_C_DW5-37" style="edgeStyle=orthogonalEdgeStyle;rounded=0;orthogonalLoop=1;jettySize=auto;html=1;" parent="1" source="v7SNlWJ-4N4TZI_C_DW5-31" target="v7SNlWJ-4N4TZI_C_DW5-35" edge="1">
          <mxGeometry relative="1" as="geometry" />
        </mxCell>
        <mxCell id="v7SNlWJ-4N4TZI_C_DW5-31" value="Actor" style="shape=umlActor;verticalLabelPosition=bottom;verticalAlign=top;html=1;outlineConnect=0;" parent="1" vertex="1">
          <mxGeometry x="1080" y="410" width="30" height="60" as="geometry" />
        </mxCell>
        <mxCell id="v7SNlWJ-4N4TZI_C_DW5-32" value="makemytrip.com" style="rounded=0;whiteSpace=wrap;html=1;" parent="1" vertex="1">
          <mxGeometry x="788.75" y="610" width="102.5" height="40" as="geometry" />
        </mxCell>
        <mxCell id="623eJf90sNJ-theE023B-13" style="edgeStyle=orthogonalEdgeStyle;rounded=0;orthogonalLoop=1;jettySize=auto;html=1;" parent="1" source="v7SNlWJ-4N4TZI_C_DW5-35" target="623eJf90sNJ-theE023B-10" edge="1">
          <mxGeometry relative="1" as="geometry">
            <Array as="points">
              <mxPoint x="975" y="940" />
              <mxPoint x="497" y="940" />
            </Array>
          </mxGeometry>
        </mxCell>
        <mxCell id="v7SNlWJ-4N4TZI_C_DW5-35" value="" style="outlineConnect=0;dashed=0;verticalLabelPosition=bottom;verticalAlign=top;align=center;html=1;shape=mxgraph.aws3.internet_gateway;fillColor=#F58534;gradientColor=none;" parent="1" vertex="1">
          <mxGeometry x="940" y="493" width="69" height="72" as="geometry" />
        </mxCell>
        <mxCell id="v7SNlWJ-4N4TZI_C_DW5-40" style="edgeStyle=orthogonalEdgeStyle;rounded=0;orthogonalLoop=1;jettySize=auto;html=1;" parent="1" source="v7SNlWJ-4N4TZI_C_DW5-39" target="v7SNlWJ-4N4TZI_C_DW5-41" edge="1">
          <mxGeometry relative="1" as="geometry">
            <mxPoint x="340" y="1230" as="targetPoint" />
          </mxGeometry>
        </mxCell>
        <mxCell id="v7SNlWJ-4N4TZI_C_DW5-39" value="Goibibo.com" style="rounded=1;whiteSpace=wrap;html=1;" parent="1" vertex="1">
          <mxGeometry x="95" y="1210" width="120" height="60" as="geometry" />
        </mxCell>
        <mxCell id="v7SNlWJ-4N4TZI_C_DW5-41" value="Godaddy&lt;br&gt;&lt;br&gt;Goibibo ---&amp;gt; IP/loadabalncer" style="rounded=1;whiteSpace=wrap;html=1;" parent="1" vertex="1">
          <mxGeometry x="330" y="1200" width="180" height="80" as="geometry" />
        </mxCell>
        <mxCell id="v7SNlWJ-4N4TZI_C_DW5-42" value="" style="rounded=1;whiteSpace=wrap;html=1;" parent="1" vertex="1">
          <mxGeometry x="630" y="1210" width="120" height="60" as="geometry" />
        </mxCell>
        <mxCell id="v7SNlWJ-4N4TZI_C_DW5-43" value="" style="rounded=0;whiteSpace=wrap;html=1;" parent="1" vertex="1">
          <mxGeometry x="110" y="575" width="60" height="30" as="geometry" />
        </mxCell>
        <mxCell id="v7SNlWJ-4N4TZI_C_DW5-44" value="" style="rounded=0;whiteSpace=wrap;html=1;" parent="1" vertex="1">
          <mxGeometry x="180" y="570" width="60" height="30" as="geometry" />
        </mxCell>
        <mxCell id="623eJf90sNJ-theE023B-1" value="" style="outlineConnect=0;dashed=0;verticalLabelPosition=bottom;verticalAlign=top;align=center;html=1;shape=mxgraph.aws3.route_table;fillColor=#F58536;gradientColor=none;" parent="1" vertex="1">
          <mxGeometry x="460" y="690.5" width="75" height="69" as="geometry" />
        </mxCell>
        <mxCell id="623eJf90sNJ-theE023B-5" value="Routetable" style="text;html=1;strokeColor=none;fillColor=none;align=center;verticalAlign=middle;whiteSpace=wrap;rounded=0;" parent="1" vertex="1">
          <mxGeometry x="467.5" y="759.5" width="60" height="30" as="geometry" />
        </mxCell>
        <mxCell id="623eJf90sNJ-theE023B-6" style="edgeStyle=orthogonalEdgeStyle;rounded=0;orthogonalLoop=1;jettySize=auto;html=1;entryX=0.652;entryY=0.327;entryDx=0;entryDy=0;entryPerimeter=0;" parent="1" source="v7SNlWJ-4N4TZI_C_DW5-35" target="623eJf90sNJ-theE023B-1" edge="1">
          <mxGeometry relative="1" as="geometry" />
        </mxCell>
        <mxCell id="623eJf90sNJ-theE023B-7" value="" style="rounded=0;whiteSpace=wrap;html=1;" parent="1" vertex="1">
          <mxGeometry x="200" y="740" width="62.5" height="19.5" as="geometry" />
        </mxCell>
        <mxCell id="623eJf90sNJ-theE023B-10" value="" style="outlineConnect=0;dashed=0;verticalLabelPosition=bottom;verticalAlign=top;align=center;html=1;shape=mxgraph.aws3.route_table;fillColor=#F58536;gradientColor=none;" parent="1" vertex="1">
          <mxGeometry x="460" y="811" width="75" height="69" as="geometry" />
        </mxCell>
        <mxCell id="623eJf90sNJ-theE023B-11" style="edgeStyle=orthogonalEdgeStyle;rounded=0;orthogonalLoop=1;jettySize=auto;html=1;entryX=0;entryY=0.5;entryDx=0;entryDy=0;entryPerimeter=0;" parent="1" source="v7SNlWJ-4N4TZI_C_DW5-21" target="623eJf90sNJ-theE023B-10" edge="1">
          <mxGeometry relative="1" as="geometry" />
        </mxCell>
        <mxCell id="623eJf90sNJ-theE023B-14" value="" style="outlineConnect=0;dashed=0;verticalLabelPosition=bottom;verticalAlign=top;align=center;html=1;shape=mxgraph.aws3.vpc_nat_gateway;fillColor=#F58534;gradientColor=none;" parent="1" vertex="1">
          <mxGeometry x="121" y="740" width="69" height="72" as="geometry" />
        </mxCell>
        <mxCell id="623eJf90sNJ-theE023B-16" value="Internet Gateway" style="text;html=1;strokeColor=none;fillColor=none;align=center;verticalAlign=middle;whiteSpace=wrap;rounded=0;" parent="1" vertex="1">
          <mxGeometry x="1020" y="520" width="80" height="50" as="geometry" />
        </mxCell>
        <mxCell id="623eJf90sNJ-theE023B-17" value="NAT gateway" style="text;html=1;strokeColor=none;fillColor=none;align=center;verticalAlign=middle;whiteSpace=wrap;rounded=0;" parent="1" vertex="1">
          <mxGeometry x="50" y="770" width="60" height="30" as="geometry" />
        </mxCell>
        <mxCell id="623eJf90sNJ-theE023B-18" value="" style="rounded=0;whiteSpace=wrap;html=1;" parent="1" vertex="1">
          <mxGeometry x="105" y="825" width="70" height="30" as="geometry" />
        </mxCell>
        <mxCell id="mRg-3acUYFeg1aIhYOfP-1" value="Security Group" style="text;html=1;strokeColor=none;fillColor=none;align=center;verticalAlign=middle;whiteSpace=wrap;rounded=0;" parent="1" vertex="1">
          <mxGeometry x="30" y="1360" width="90" height="30" as="geometry" />
        </mxCell>
        <mxCell id="mRg-3acUYFeg1aIhYOfP-2" value="" style="rounded=0;whiteSpace=wrap;html=1;fillColor=default;fontColor=#ffffff;strokeColor=#CF0000;" parent="1" vertex="1">
          <mxGeometry x="240" y="1440" width="380" height="200" as="geometry" />
        </mxCell>
        <mxCell id="mRg-3acUYFeg1aIhYOfP-3" value="Application - 1" style="rounded=1;whiteSpace=wrap;html=1;strokeColor=#66FF66;" parent="1" vertex="1">
          <mxGeometry x="370" y="1510" width="120" height="60" as="geometry" />
        </mxCell>
        <mxCell id="mRg-3acUYFeg1aIhYOfP-4" value="Server" style="text;html=1;align=center;verticalAlign=middle;resizable=0;points=[];autosize=1;strokeColor=none;fillColor=none;" parent="1" vertex="1">
          <mxGeometry x="360" y="1408" width="60" height="30" as="geometry" />
        </mxCell>
        <mxCell id="mRg-3acUYFeg1aIhYOfP-5" value="Actor" style="shape=umlActor;verticalLabelPosition=bottom;verticalAlign=top;html=1;outlineConnect=0;" parent="1" vertex="1">
          <mxGeometry x="70" y="1510" width="30" height="60" as="geometry" />
        </mxCell>
        <mxCell id="mRg-3acUYFeg1aIhYOfP-6" value="" style="ellipse;whiteSpace=wrap;html=1;aspect=fixed;" parent="1" vertex="1">
          <mxGeometry x="360" y="1530" width="20" height="20" as="geometry" />
        </mxCell>
        <mxCell id="mRg-3acUYFeg1aIhYOfP-9" value="" style="ellipse;whiteSpace=wrap;html=1;aspect=fixed;" parent="1" vertex="1">
          <mxGeometry x="230" y="1530" width="20" height="20" as="geometry" />
        </mxCell>
        <mxCell id="mRg-3acUYFeg1aIhYOfP-10" value="" style="rounded=1;whiteSpace=wrap;html=1;" parent="1" vertex="1">
          <mxGeometry x="240" y="1530" width="130" height="20" as="geometry" />
        </mxCell>
        <mxCell id="mRg-3acUYFeg1aIhYOfP-11" value="" style="endArrow=classic;html=1;rounded=0;" parent="1" target="mRg-3acUYFeg1aIhYOfP-3" edge="1">
          <mxGeometry width="50" height="50" relative="1" as="geometry">
            <mxPoint x="110" y="1540" as="sourcePoint" />
            <mxPoint x="500" y="1610" as="targetPoint" />
          </mxGeometry>
        </mxCell>
        <mxCell id="mRg-3acUYFeg1aIhYOfP-21" value="Application - 2&amp;nbsp;" style="rounded=1;whiteSpace=wrap;html=1;strokeColor=#00FF80;" parent="1" vertex="1">
          <mxGeometry x="485" y="1580" width="120" height="60" as="geometry" />
        </mxCell>
        <mxCell id="mRg-3acUYFeg1aIhYOfP-22" value="" style="ellipse;whiteSpace=wrap;html=1;aspect=fixed;" parent="1" vertex="1">
          <mxGeometry x="475" y="1600" width="20" height="20" as="geometry" />
        </mxCell>
        <mxCell id="mRg-3acUYFeg1aIhYOfP-23" value="" style="ellipse;whiteSpace=wrap;html=1;aspect=fixed;" parent="1" vertex="1">
          <mxGeometry x="230" y="1600" width="20" height="20" as="geometry" />
        </mxCell>
        <mxCell id="mRg-3acUYFeg1aIhYOfP-24" value="" style="rounded=1;whiteSpace=wrap;html=1;" parent="1" vertex="1">
          <mxGeometry x="240" y="1600" width="250" height="20" as="geometry" />
        </mxCell>
        <mxCell id="mRg-3acUYFeg1aIhYOfP-25" value="Actor" style="shape=umlActor;verticalLabelPosition=bottom;verticalAlign=top;html=1;outlineConnect=0;" parent="1" vertex="1">
          <mxGeometry x="130" y="1580" width="30" height="60" as="geometry" />
        </mxCell>
        <mxCell id="mRg-3acUYFeg1aIhYOfP-26" value="" style="endArrow=classic;html=1;rounded=0;" parent="1" edge="1">
          <mxGeometry width="50" height="50" relative="1" as="geometry">
            <mxPoint x="180" y="1610" as="sourcePoint" />
            <mxPoint x="500" y="1610" as="targetPoint" />
          </mxGeometry>
        </mxCell>
        <mxCell id="mRg-3acUYFeg1aIhYOfP-27" value="3000" style="text;html=1;strokeColor=none;fillColor=none;align=center;verticalAlign=middle;whiteSpace=wrap;rounded=0;" parent="1" vertex="1">
          <mxGeometry x="310" y="1500" width="60" height="30" as="geometry" />
        </mxCell>
        <mxCell id="mRg-3acUYFeg1aIhYOfP-28" value="" style="ellipse;whiteSpace=wrap;html=1;aspect=fixed;" parent="1" vertex="1">
          <mxGeometry x="225" y="1460" width="30" height="30" as="geometry" />
        </mxCell>
        <mxCell id="mRg-3acUYFeg1aIhYOfP-29" value="" style="ellipse;whiteSpace=wrap;html=1;aspect=fixed;" parent="1" vertex="1">
          <mxGeometry x="527.5" y="1420" width="30" height="30" as="geometry" />
        </mxCell>
        <mxCell id="mRg-3acUYFeg1aIhYOfP-30" value="" style="ellipse;whiteSpace=wrap;html=1;aspect=fixed;" parent="1" vertex="1">
          <mxGeometry x="300" y="1420" width="30" height="30" as="geometry" />
        </mxCell>
        <mxCell id="mRg-3acUYFeg1aIhYOfP-31" value="Port 22" style="text;html=1;strokeColor=none;fillColor=none;align=center;verticalAlign=middle;whiteSpace=wrap;rounded=0;" parent="1" vertex="1">
          <mxGeometry x="180" y="1480" width="60" height="30" as="geometry" />
        </mxCell>
        <mxCell id="mRg-3acUYFeg1aIhYOfP-33" value="Port 80 -http" style="text;html=1;strokeColor=none;fillColor=none;align=center;verticalAlign=middle;whiteSpace=wrap;rounded=0;" parent="1" vertex="1">
          <mxGeometry x="262.5" y="1390" width="80" height="30" as="geometry" />
        </mxCell>
        <mxCell id="mRg-3acUYFeg1aIhYOfP-34" value="Port 443 - https" style="text;html=1;strokeColor=none;fillColor=none;align=center;verticalAlign=middle;whiteSpace=wrap;rounded=0;" parent="1" vertex="1">
          <mxGeometry x="495" y="1390" width="107.5" height="30" as="geometry" />
        </mxCell>
        <mxCell id="mRg-3acUYFeg1aIhYOfP-35" value="SSH" style="text;html=1;strokeColor=none;fillColor=none;align=center;verticalAlign=middle;whiteSpace=wrap;rounded=0;" parent="1" vertex="1">
          <mxGeometry x="175" y="1430" width="60" height="30" as="geometry" />
        </mxCell>
        <mxCell id="mRg-3acUYFeg1aIhYOfP-36" value="Actor" style="shape=umlActor;verticalLabelPosition=bottom;verticalAlign=top;html=1;outlineConnect=0;" parent="1" vertex="1">
          <mxGeometry x="140" y="1438" width="30" height="60" as="geometry" />
        </mxCell>
        <mxCell id="mRg-3acUYFeg1aIhYOfP-37" value="" style="endArrow=classic;html=1;rounded=0;" parent="1" edge="1">
          <mxGeometry width="50" height="50" relative="1" as="geometry">
            <mxPoint x="170" y="1470" as="sourcePoint" />
            <mxPoint x="260" y="1470" as="targetPoint" />
          </mxGeometry>
        </mxCell>
        <mxCell id="mRg-3acUYFeg1aIhYOfP-38" value="Actor" style="shape=umlActor;verticalLabelPosition=bottom;verticalAlign=top;html=1;outlineConnect=0;" parent="1" vertex="1">
          <mxGeometry x="287.5" y="1310" width="30" height="60" as="geometry" />
        </mxCell>
        <mxCell id="mRg-3acUYFeg1aIhYOfP-41" value="" style="endArrow=classic;html=1;rounded=0;entryX=0.25;entryY=0.5;entryDx=0;entryDy=0;entryPerimeter=0;" parent="1" source="mRg-3acUYFeg1aIhYOfP-29" target="mRg-3acUYFeg1aIhYOfP-3" edge="1">
          <mxGeometry width="50" height="50" relative="1" as="geometry">
            <mxPoint x="450" y="1590" as="sourcePoint" />
            <mxPoint x="500" y="1540" as="targetPoint" />
          </mxGeometry>
        </mxCell>
        <mxCell id="mRg-3acUYFeg1aIhYOfP-42" value="" style="endArrow=classic;html=1;rounded=0;exitX=1;exitY=1;exitDx=0;exitDy=0;" parent="1" source="mRg-3acUYFeg1aIhYOfP-29" target="mRg-3acUYFeg1aIhYOfP-21" edge="1">
          <mxGeometry width="50" height="50" relative="1" as="geometry">
            <mxPoint x="450" y="1590" as="sourcePoint" />
            <mxPoint x="500" y="1540" as="targetPoint" />
          </mxGeometry>
        </mxCell>
        <mxCell id="mRg-3acUYFeg1aIhYOfP-43" value="3500" style="text;html=1;strokeColor=none;fillColor=none;align=center;verticalAlign=middle;whiteSpace=wrap;rounded=0;" parent="1" vertex="1">
          <mxGeometry x="430" y="1570" width="60" height="30" as="geometry" />
        </mxCell>
        <mxCell id="mRg-3acUYFeg1aIhYOfP-45" value="sample-file" style="ellipse;whiteSpace=wrap;html=1;" parent="1" vertex="1">
          <mxGeometry x="275" y="1480" width="60" height="30" as="geometry" />
        </mxCell>
        <mxCell id="mRg-3acUYFeg1aIhYOfP-46" value="" style="rounded=0;whiteSpace=wrap;html=1;fillColor=default;fontColor=#ffffff;strokeColor=#CF0000;" parent="1" vertex="1">
          <mxGeometry x="240" y="1690" width="380" height="200" as="geometry" />
        </mxCell>
        <mxCell id="mRg-3acUYFeg1aIhYOfP-47" value="" style="ellipse;whiteSpace=wrap;html=1;aspect=fixed;" parent="1" vertex="1">
          <mxGeometry x="222.5" y="1720" width="35" height="35" as="geometry" />
        </mxCell>
        <mxCell id="mRg-3acUYFeg1aIhYOfP-48" value="SSH" style="text;html=1;strokeColor=none;fillColor=none;align=center;verticalAlign=middle;whiteSpace=wrap;rounded=0;" parent="1" vertex="1">
          <mxGeometry x="170" y="1700" width="60" height="30" as="geometry" />
        </mxCell>
        <mxCell id="mRg-3acUYFeg1aIhYOfP-49" value="Port 22" style="text;html=1;strokeColor=none;fillColor=none;align=center;verticalAlign=middle;whiteSpace=wrap;rounded=0;" parent="1" vertex="1">
          <mxGeometry x="165" y="1755" width="60" height="30" as="geometry" />
        </mxCell>
        <mxCell id="mRg-3acUYFeg1aIhYOfP-50" value="Actor" style="shape=umlActor;verticalLabelPosition=bottom;verticalAlign=top;html=1;outlineConnect=0;" parent="1" vertex="1">
          <mxGeometry x="95" y="1700" width="30" height="60" as="geometry" />
        </mxCell>
        <mxCell id="E9tKOZTcYN1__m4tunko-1" value="" style="rounded=0;whiteSpace=wrap;html=1;" parent="1" vertex="1">
          <mxGeometry x="60" y="2190" width="990" height="420" as="geometry" />
        </mxCell>
        <mxCell id="E9tKOZTcYN1__m4tunko-2" value="XZ" style="rounded=0;whiteSpace=wrap;html=1;" parent="1" vertex="1">
          <mxGeometry x="193.75" y="2210" width="697.5" height="170" as="geometry" />
        </mxCell>
        <mxCell id="E9tKOZTcYN1__m4tunko-3" value="AB" style="rounded=0;whiteSpace=wrap;html=1;" parent="1" vertex="1">
          <mxGeometry x="193.75" y="2400" width="697.5" height="170" as="geometry" />
        </mxCell>
        <mxCell id="E9tKOZTcYN1__m4tunko-4" value="" style="rounded=1;whiteSpace=wrap;html=1;" parent="1" vertex="1">
          <mxGeometry x="-90" y="2265" width="120" height="60" as="geometry" />
        </mxCell>
        <mxCell id="E9tKOZTcYN1__m4tunko-6" value="" style="rounded=1;whiteSpace=wrap;html=1;" parent="1" vertex="1">
          <mxGeometry x="-130" y="2350" width="120" height="60" as="geometry" />
        </mxCell>
        <mxCell id="E9tKOZTcYN1__m4tunko-7" value="" style="rounded=1;whiteSpace=wrap;html=1;" parent="1" vertex="1">
          <mxGeometry x="-150" y="2455" width="120" height="60" as="geometry" />
        </mxCell>
        <mxCell id="E9tKOZTcYN1__m4tunko-8" value="" style="rounded=1;whiteSpace=wrap;html=1;" parent="1" vertex="1">
          <mxGeometry x="660" y="2455" width="120" height="60" as="geometry" />
        </mxCell>
        <mxCell id="k4nz4pO9S0Y7JLcNfRkU-1" value="CPU" style="rounded=0;whiteSpace=wrap;html=1;" vertex="1" parent="1">
          <mxGeometry x="120" y="2710" width="240" height="180" as="geometry" />
        </mxCell>
        <mxCell id="k4nz4pO9S0Y7JLcNfRkU-6" value="Backup volume" style="rounded=0;whiteSpace=wrap;html=1;" vertex="1" parent="1">
          <mxGeometry x="725" y="2800" width="117.5" height="60" as="geometry" />
        </mxCell>
        <mxCell id="k4nz4pO9S0Y7JLcNfRkU-8" value="Internal volume" style="rounded=0;whiteSpace=wrap;html=1;" vertex="1" parent="1">
          <mxGeometry x="361.25" y="2800" width="118.75" height="60" as="geometry" />
        </mxCell>
        <mxCell id="k4nz4pO9S0Y7JLcNfRkU-9" value="External volume" style="rounded=0;whiteSpace=wrap;html=1;" vertex="1" parent="1">
          <mxGeometry x="480" y="2710" width="170" height="150" as="geometry" />
        </mxCell>
      </root>
    </mxGraphModel>
  </diagram>
</mxfile>
